HIERARCHY
ROOT Hips
{
  OFFSET 5.84602e-005 68.8428 3.50346
  CHANNELS 6 Xposition Yposition Zposition Zrotation Xrotation Yrotation
  JOINT Spine
  {
    OFFSET 0 8.597 -4.6522
    CHANNELS 3 Zrotation Xrotation Yrotation
    JOINT Spine1
    {
      OFFSET 0 7.8454 0.4098
      CHANNELS 3 Zrotation Xrotation Yrotation
      JOINT Spine2
      {
        OFFSET 0 9.7078 -2.1609
        CHANNELS 3 Zrotation Xrotation Yrotation
        JOINT Neck
        {
          OFFSET 0 21.8761 -0.4549
          CHANNELS 3 Zrotation Xrotation Yrotation
          JOINT Head
          {
            OFFSET 0 12.3537 3.3602
            CHANNELS 3 Zrotation Xrotation Yrotation
            End Site
            {
              OFFSET 0.0001 18.9506 0.5657
            }
          }
        }
        JOINT LeftShoulder
        {
          OFFSET 2.2086 21.1115 7.2329
          CHANNELS 3 Zrotation Xrotation Yrotation
          JOINT LeftArm
          {
            OFFSET 13.1193 3.0282 -4.8998
            CHANNELS 3 Zrotation Xrotation Yrotation
            JOINT LeftForeArm
            {
              OFFSET 27.4081 -0.0973053 -0.2375
              CHANNELS 3 Zrotation Xrotation Yrotation
              JOINT LeftHand
              {
                OFFSET 22.8641 0.0662994 -0.1369
                CHANNELS 3 Zrotation Xrotation Yrotation
                JOINT LeftHandIndex1
                {
                  OFFSET 8.8614 0.775009 2.4612
                  CHANNELS 3 Zrotation Xrotation Yrotation
                  JOINT LeftHandIndex2
                  {
                    OFFSET 3.3146 -0.808304 0.5841
                    CHANNELS 3 Zrotation Xrotation Yrotation
                    JOINT LeftHandIndex3
                    {
                      OFFSET 2.2628 -0.552002 0.3989
                      CHANNELS 3 Zrotation Xrotation Yrotation
                      End Site
                      {
                        OFFSET 1.6102 -0.4807 0.2612
                      }
                    }
                  }
                }
                JOINT LeftHandMiddle1
                {
                  OFFSET 8.9937 0.895004 0.2143
                  CHANNELS 3 Zrotation Xrotation Yrotation
                  JOINT LeftHandMiddle2
                  {
                    OFFSET 4.0984 0.0113983 -0.0242
                    CHANNELS 3 Zrotation Xrotation Yrotation
                    JOINT LeftHandMiddle3
                    {
                      OFFSET 2.2716 0.00689697 -0.0138001
                      CHANNELS 3 Zrotation Xrotation Yrotation
                      End Site
                      {
                        OFFSET 2.0404 -0.1441 0.0027
                      }
                    }
                  }
                }
                JOINT LeftHandRing1
                {
                  OFFSET 8.5234 0.597198 -2.0164
                  CHANNELS 3 Zrotation Xrotation Yrotation
                  JOINT LeftHandRing2
                  {
                    OFFSET 3.7188 -0.188293 -0.2328
                    CHANNELS 3 Zrotation Xrotation Yrotation
                    JOINT LeftHandRing3
                    {
                      OFFSET 2.1191 -0.106598 -0.1332
                      CHANNELS 3 Zrotation Xrotation Yrotation
                      End Site
                      {
                        OFFSET 1.8737 -0.2304 -0.0886
                      }
                    }
                  }
                }
                JOINT LeftHandPinky1
                {
                  OFFSET 7.9094 -0.601089 -3.4825
                  CHANNELS 3 Zrotation Xrotation Yrotation
                  JOINT LeftHandPinky2
                  {
                    OFFSET 2.2874 -0.477005 -0.6314
                    CHANNELS 3 Zrotation Xrotation Yrotation
                    JOINT LeftHandPinky3
                    {
                      OFFSET 1.6774 -0.349396 -0.4633
                      CHANNELS 3 Zrotation Xrotation Yrotation
                      End Site
                      {
                        OFFSET 1.4888 -0.4091 -0.3416
                      }
                    }
                  }
                }
                JOINT LeftHandThumb1
                {
                  OFFSET 1.833 -1.3875 1.3896
                  CHANNELS 3 Zrotation Xrotation Yrotation
                  JOINT LeftHandThumb2
                  {
                    OFFSET 3.4129 -1.121 2.5732
                    CHANNELS 3 Zrotation Xrotation Yrotation
                    JOINT LeftHandThumb3
                    {
                      OFFSET 2.2474 -0.804199 1.6192
                      CHANNELS 3 Zrotation Xrotation Yrotation
                      End Site
                      {
                        OFFSET 1.6527 -0.5689 1.1317
                      }
                    }
                  }
                }
              }
            }
          }
        }
        JOINT RightShoulder
        {
          OFFSET -2.2086 21.1115 7.2329
          CHANNELS 3 Zrotation Xrotation Yrotation
          JOINT RightArm
          {
            OFFSET -13.1216 3.0287 -4.9007
            CHANNELS 3 Zrotation Xrotation Yrotation
            JOINT RightForeArm
            {
              OFFSET -27.4081 -0.0973053 -0.2375
              CHANNELS 3 Zrotation Xrotation Yrotation
              JOINT RightHand
              {
                OFFSET -22.8641 0.0664063 -0.1369
                CHANNELS 3 Zrotation Xrotation Yrotation
                JOINT RightHandIndex1
                {
                  OFFSET -8.8614 0.774994 2.4612
                  CHANNELS 3 Zrotation Xrotation Yrotation
                  JOINT RightHandIndex2
                  {
                    OFFSET -3.3146 -0.808304 0.5841
                    CHANNELS 3 Zrotation Xrotation Yrotation
                    JOINT RightHandIndex3
                    {
                      OFFSET -2.2628 -0.552002 0.3989
                      CHANNELS 3 Zrotation Xrotation Yrotation
                      End Site
                      {
                        OFFSET -1.6102 -0.4807 0.2612
                      }
                    }
                  }
                }
                JOINT RightHandMiddle1
                {
                  OFFSET -8.9937 0.894989 0.2143
                  CHANNELS 3 Zrotation Xrotation Yrotation
                  JOINT RightHandMiddle2
                  {
                    OFFSET -4.0984 0.0113983 -0.0242
                    CHANNELS 3 Zrotation Xrotation Yrotation
                    JOINT RightHandMiddle3
                    {
                      OFFSET -2.2716 0.00691223 -0.0138001
                      CHANNELS 3 Zrotation Xrotation Yrotation
                      End Site
                      {
                        OFFSET -2.0404 -0.1441 0.0027
                      }
                    }
                  }
                }
                JOINT RightHandRing1
                {
                  OFFSET -8.5234 0.597198 -2.0164
                  CHANNELS 3 Zrotation Xrotation Yrotation
                  JOINT RightHandRing2
                  {
                    OFFSET -3.7188 -0.188309 -0.2328
                    CHANNELS 3 Zrotation Xrotation Yrotation
                    JOINT RightHandRing3
                    {
                      OFFSET -2.1191 -0.106598 -0.1332
                      CHANNELS 3 Zrotation Xrotation Yrotation
                      End Site
                      {
                        OFFSET -1.8737 -0.2304 -0.0886
                      }
                    }
                  }
                }
                JOINT RightHandPinky1
                {
                  OFFSET -7.9094 -0.601105 -3.4825
                  CHANNELS 3 Zrotation Xrotation Yrotation
                  JOINT RightHandPinky2
                  {
                    OFFSET -2.2874 -0.477005 -0.6314
                    CHANNELS 3 Zrotation Xrotation Yrotation
                    JOINT RightHandPinky3
                    {
                      OFFSET -1.6774 -0.349396 -0.4633
                      CHANNELS 3 Zrotation Xrotation Yrotation
                      End Site
                      {
                        OFFSET -1.4888 -0.4091 -0.3416
                      }
                    }
                  }
                }
                JOINT RightHandThumb1
                {
                  OFFSET -1.833 -1.38751 1.3896
                  CHANNELS 3 Zrotation Xrotation Yrotation
                  JOINT RightHandThumb2
                  {
                    OFFSET -3.41299 -1.12099 2.5732
                    CHANNELS 3 Zrotation Xrotation Yrotation
                    JOINT RightHandThumb3
                    {
                      OFFSET -2.24741 -0.804108 1.6192
                      CHANNELS 3 Zrotation Xrotation Yrotation
                      End Site
                      {
                        OFFSET -1.6527 -0.5689 1.1317
                      }
                    }
                  }
                }
              }
            }
          }
        }
      }
    }
  }
  JOINT RightUpLeg
  {
    OFFSET -9.1966 3.8861 -0.7581
    CHANNELS 3 Zrotation Xrotation Yrotation
    JOINT RightLeg
    {
      OFFSET -0.7359 -41.0265 0
      CHANNELS 3 Zrotation Xrotation Yrotation
      JOINT RightFoot
      {
        OFFSET 0 -40.2855 0
        CHANNELS 3 Zrotation Xrotation Yrotation
        JOINT RightToeBase
        {
          OFFSET 0 -5.6122 11.7359
          CHANNELS 3 Zrotation Xrotation Yrotation
          End Site
          {
            OFFSET 0 0 7.8731
          }
        }
      }
    }
  }
  JOINT LeftUpLeg
  {
    OFFSET 9.1965 3.8864 -0.7581
    CHANNELS 3 Zrotation Xrotation Yrotation
    JOINT LeftLeg
    {
      OFFSET 0.7359 -41.0268 0
      CHANNELS 3 Zrotation Xrotation Yrotation
      JOINT LeftFoot
      {
        OFFSET 0 -40.2855 0
        CHANNELS 3 Zrotation Xrotation Yrotation
        JOINT LeftToeBase
        {
          OFFSET 0 -5.6122 11.7359
          CHANNELS 3 Zrotation Xrotation Yrotation
          End Site
          {
            OFFSET 0 0 7.8731
          }
        }
      }
    }
  }
}
MOTION
Frames:	5
Frame Time:	0.0333333
5.84602e-005 68.8428 3.50346 0 0 -0 0 0 -0 0 0 -0 0 0 -0 0 0 -0 0 0 -0 0 0 -0 0 0 -0 0 0 -0 0 0 -0 0 0 -0 0 0 -0 0 0 -0 0 0 -0 -0.0146107 -8.87603e-005 -2.63497e-007 2.99804e-018 -2.42657e-020 -1.42182e-022 0 0 -0 -0.0187562 -0.001176 5.858e-005 5.06224e-018 3.88251e-019 1.21329e-020 0 0 -0 -0.012269 -0.00324817 0.000675346 -1.74678e-018 3.88251e-019 -0 0 0 -0 0 0 -0 0 0 -0 0 0 -0 0 0 -0 0 0 -0 0 0 -0 0 0 -0 0 0 -0 0 0 -0 0 0 -0 0.0149955 -9.10982e-005 2.64101e-007 -9.69331e-018 1.21329e-020 -4.7394e-023 0 0 -0 0.0189956 -0.00119102 -5.96516e-005 -5.41541e-019 0 2.42657e-020 0 0 -0 0.0122698 -0.00324857 -0.000673756 -2.00796e-019 0 -1.94126e-019 0 0 -0 0 0 -0 0 0 -0 3.39842 1.33031 -0.0637918 -5.65207e-008 0.834868 -0.000436188 -3.39935 -2.16518 -0.0642563 -8.89002e-024 -1.18485e-023 -1.48106e-024 -3.39844 1.35642 0.0640283 -3.18788e-007 0.782166 -0.000588827 3.39931 -2.13858 0.0634662 1.1399e-023 0 -0 
-17.7879 17.352 -16.5383 -66.6648 66.7347 -0.00340857 7.7316 3.32325 2.18621 15.3724 6.90896 3.91431 15.3724 6.90894 3.91431 20.1716 -0.500791 -5.6208 0.799236 -1.34507 -21.6699 1.0854 0.669977 19.9997 -2.86773 25.9986 -21.3512 44.7123 -31.3551 -40.8631 12.8618 0.794634 8.74868 -2.25088e-007 -3.56431e-007 -6.49351e-008 -1.16803e-006 2.53977e-007 -1.55434e-006 3.31088e-007 2.14277e-007 -2.10674e-006 -2.25088e-007 -3.56431e-007 -6.49351e-008 -0.0145926 -8.90967e-005 -7.32856e-007 -2.25086e-007 -3.56423e-007 -6.49803e-008 -2.25088e-007 -3.56431e-007 -6.49351e-008 -0.0187456 -0.00117518 6.09497e-005 -2.25086e-007 -3.5642e-007 -6.49911e-008 -2.25088e-007 -3.56431e-007 -6.49351e-008 -0.0122152 -0.00323359 0.000672325 -2.2509e-007 -3.56422e-007 -6.49669e-008 -2.25088e-007 -3.56431e-007 -6.49351e-008 -1.16803e-006 2.53977e-007 -1.55434e-006 3.31088e-007 2.14277e-007 -2.10674e-006 14.227 5.92193 -2.16316 0.361737 -34.3872 -38.2514 27.6944 -4.11821 -0.0860213 20.4358 -1.86654 -1.57477 3.18055e-015 0 -0 2.80707e-007 3.10649e-007 -8.10635e-008 -3.18055e-015 1.59028e-015 -1.59028e-015 3.18055e-015 0 -0 0.0150279 -9.26057e-005 -2.6936e-006 -6.36111e-015 -1.98785e-015 -1.59028e-015 3.18055e-015 0 -0 0.0190002 -0.00119248 -6.5286e-005 3.18055e-015 -1.59028e-015 7.95139e-016 3.18055e-015 0 -0 0.012333 -0.00326398 -0.00068179 9.54166e-015 -2.78299e-015 -3.97569e-015 3.18055e-015 0 -0 2.80707e-007 3.10649e-007 -8.10635e-008 -3.18055e-015 1.59028e-015 -1.59028e-015 -16.4524 -69.0875 0.51166 39.4394 40.1828 -47.2437 9.8662 3.28398 11.7668 4.88777e-006 -7.34853e-007 -3.04702e-006 -8.11929 -51.8822 10.9135 11.9624 46.6674 -11.1213 -0.86278 11.0454 -2.88483 -5.77397e-007 -4.55165e-006 -9.13509e-006 
-20.815 -5.26847 -24.0351 83.3164 83.5394 -179.985 11.0641 4.67999 3.34489 21.9586 9.91054 5.7543 21.9586 9.91053 5.75432 29.0744 -0.820989 -8.1237 0.829587 -1.93131 -31.4272 1.54078 0.986414 29.6167 3.10095 34.7525 -34.4511 51.2308 -32.8428 -64.3687 18.5709 1.13733 12.6869 -4.75913e-008 2.86302e-007 -2.72277e-008 4.95909e-008 1.39073e-007 -8.69937e-010 -4.75913e-008 2.86302e-007 -2.72276e-008 -4.75913e-008 2.86302e-007 -2.72277e-008 -0.0146115 -8.88899e-005 -2.61223e-007 1.36664e-015 -7.95139e-016 1.98785e-016 -4.75913e-008 2.86302e-007 -2.72277e-008 -0.0187555 -0.00117588 5.94824e-005 1.2424e-016 1.59028e-015 -1.98785e-016 -4.75913e-008 2.86302e-007 -2.72277e-008 -0.0122631 -0.00324577 0.000675116 -2.24875e-015 2.38542e-015 -0 -4.75913e-008 2.86302e-007 -2.72277e-008 4.95909e-008 1.39073e-007 -8.69937e-010 -4.75913e-008 2.86302e-007 -2.72276e-008 19.9008 8.5028 -2.4055 -14.7262 -37.7803 -62.8979 38.3709 1.71908 -0.052035 29.0906 -2.72141 -2.29555 -7.15625e-015 -1.59028e-015 3.18055e-015 -7.15625e-015 -4.77083e-015 3.18055e-015 6.36111e-015 0 3.18055e-015 -7.15625e-015 -1.59028e-015 3.18055e-015 0.014986 -8.83594e-005 -6.37095e-006 -5.56597e-015 9.54166e-015 -0 -7.15625e-015 -1.59028e-015 3.18055e-015 0.0189975 -0.00119141 -5.57709e-005 1.59028e-015 -1.59028e-015 3.18055e-015 -7.15625e-015 -1.59028e-015 3.18055e-015 0.0122875 -0.00324996 -0.000674115 2.38542e-015 -7.95139e-016 -0 -7.15625e-015 -1.59028e-015 3.18055e-015 -7.15625e-015 -4.77083e-015 3.18055e-015 6.36111e-015 0 3.18055e-015 149.231 -79.9553 176.548 73.5846 38.8123 -75.2512 15.0294 6.4683 17.1294 2.73294e-006 -1.63866e-006 -3.60686e-006 10.9263 -73.0705 34.863 32.6013 65.0718 -30.4099 -2.57664 16.6711 -2.87282 1.59028e-015 -3.18055e-015 -0 
-20.4292 0.0298657 -22.6694 -89.932 89.1776 -0.0704879 10.3125 4.6591 2.82577 20.4933 9.74588 4.79122 20.4933 9.74587 4.7912 26.7844 -0.969737 -7.50832 0.831545 -2.13532 -29.253 1.70737 1.11018 28.8473 1.34426 33.0789 -31.2766 49.8596 -33.2749 -59.0853 17.3064 1.0624 11.8116 1.05645e-007 -1.32104e-008 -7.22352e-009 1.05645e-007 -1.32104e-008 -7.22352e-009 1.05645e-007 -1.32103e-008 -7.22352e-009 1.05645e-007 -1.32104e-008 -7.22352e-009 -0.0146065 -9.01067e-005 7.64481e-007 1.69947e-007 -1.0216e-007 -1.07535e-008 1.05645e-007 -1.32104e-008 -7.22352e-009 -0.0187648 -0.00117806 5.99514e-005 1.05645e-007 -1.32092e-008 -7.22677e-009 1.05645e-007 -1.32104e-008 -7.22352e-009 -0.0122786 -0.00325073 0.00067538 1.05645e-007 -1.32102e-008 -7.22793e-009 1.05645e-007 -1.32104e-008 -7.22352e-009 1.05645e-007 -1.32104e-008 -7.22352e-009 1.05645e-007 -1.32103e-008 -7.22352e-009 16.7138 7.74329 -0.688231 -11.0544 -37.7609 -57.768 37.1518 1.68046 -0.0583759 26.0406 -2.56713 -2.15933 4.77083e-015 1.59028e-015 6.36111e-015 -3.15169e-007 -6.94537e-007 3.80482e-007 -4.77083e-015 0 -3.18055e-015 4.77083e-015 1.59028e-015 6.36111e-015 0.0150045 -9.36766e-005 -1.0626e-006 -4.77083e-015 3.18055e-015 3.18055e-015 4.77083e-015 1.59028e-015 6.36111e-015 0.0189779 -0.00118875 -6.30639e-005 2.64834e-031 1.59028e-015 -9.54166e-015 4.77083e-015 1.59028e-015 6.36111e-015 0.0123004 -0.00325504 -0.0006747 -9.54166e-015 -4.77083e-015 -0 4.77083e-015 1.59028e-015 6.36111e-015 -3.15169e-007 -6.94537e-007 3.80482e-007 -4.77083e-015 0 -3.18055e-015 137.205 -87.0549 162.346 66.0245 40.3096 -69.5711 14.1681 5.70464 15.6389 1.09902e-006 7.43561e-006 -3.44554e-006 2.45042 -68.5014 25.3404 26.5154 61.7761 -24.8501 -2.3711 15.2404 -2.5771 8.51023e-007 -7.92964e-007 -1.34205e-006 
-20.4966 0.0301013 -22.7861 -89.981 88.6231 -0.0219702 10.2958 4.87805 2.62442 20.4771 10.1443 4.35282 20.4771 10.1443 4.35281 26.5275 -1.14942 -7.46095 0.823083 -2.39646 -29.2487 1.91584 1.26857 29.9692 1.34428 33.0788 -31.2766 49.7495 -33.1258 -58.8952 17.3064 1.0624 11.8116 -1.05669e-007 1.32842e-008 6.811e-009 -2.67324e-009 2.70539e-008 -9.54581e-009 -1.02996e-007 -1.37697e-008 1.63568e-008 -1.05669e-007 1.32842e-008 6.811e-009 -0.0146197 -8.77732e-005 1.9617e-007 -1.05669e-007 1.32833e-008 6.81278e-009 -1.05669e-007 1.32842e-008 6.811e-009 -0.018752 -0.0011758 6.02896e-005 -1.05669e-007 1.32831e-008 6.81427e-009 -1.05669e-007 1.32842e-008 6.811e-009 -0.0122699 -0.0032479 0.000678258 -1.04472e-007 -1.41618e-008 1.644e-008 -1.05669e-007 1.32842e-008 6.811e-009 -2.67324e-009 2.70539e-008 -9.54581e-009 -1.02996e-007 -1.37697e-008 1.63568e-008 15.1362 7.54613 0.673355 -11.089 -37.5547 -58.0395 37.8462 3.1876 -0.0595934 25.1154 -2.59593 -2.1796 1.61506e-007 3.4836e-007 -1.85243e-007 -1.61506e-007 -3.4836e-007 1.85243e-007 1.61506e-007 3.4836e-007 -1.85243e-007 1.61506e-007 3.4836e-007 -1.85243e-007 0.0149902 -8.80166e-005 7.49379e-006 1.61509e-007 3.48335e-007 -1.85289e-007 1.61506e-007 3.4836e-007 -1.85243e-007 0.0189682 -0.0011891 -5.59855e-005 1.61508e-007 3.48329e-007 -1.85303e-007 1.61506e-007 3.4836e-007 -1.85243e-007 0.0122697 -0.00324709 -0.000680435 1.61501e-007 3.4834e-007 -1.85285e-007 1.61506e-007 3.4836e-007 -1.85243e-007 -1.61506e-007 -3.4836e-007 1.85243e-007 1.61506e-007 3.4836e-007 -1.85243e-007 130.602 -87.1753 155.917 66.0424 40.3147 -69.5758 14.3371 5.60635 15.409 3.82012e-006 2.49542e-006 -1.54064e-006 2.27433 -68.1437 25.1198 26.8796 62.0089 -25.171 -2.45694 15.1404 -2.49008 6.58901e-006 2.71072e-006 4.37487e-006 
